<svg width="263" height="72" viewBox="0 0 263 72" fill="none" xmlns="http://www.w3.org/2000/svg">
<rect width="263" height="72" fill="#003049"/>
<path d="M35.043 29.707L39.5518 28.9463V32.6758L39.4404 37.166L44.7656 35.8672C45.5202 33.4798 45.8975 31.3151 45.8975 29.373C45.8975 28.9648 45.8727 28.5814 45.8232 28.2227C43.7327 27.5671 39.6074 27.1156 33.4473 26.8682L34.1523 22.4893C39.4342 22.6995 44.0111 23.2067 47.8828 24.0107C48.2168 24.085 48.7487 24.5736 49.4785 25.4766C50.196 26.3672 50.5671 26.9919 50.5918 27.3506C50.6289 27.7093 50.6475 28.0618 50.6475 28.4082V29.4473C50.6475 31.0553 50.2393 33.1335 49.4229 35.6816C48.9775 37.0671 48.5384 37.9577 48.1055 38.3535C47.9076 38.5391 47.7282 38.6751 47.5674 38.7617L45.749 39.3555C47.555 41.3223 49.2249 43.4808 50.7588 45.8311L46.8994 48.4473L42.2607 40.2832L39.5518 40.4316L39.4033 47L35.377 47.334L35.043 29.707ZM59.5166 42.8623L68.5156 44.2168L67.5322 48.2617L64.7305 47.8906C60.6113 47.3216 57.5189 46.7588 55.4531 46.2021L55.2119 24.8086C59.5785 23.6953 63.7347 22.9469 67.6807 22.5635L68.3301 26.9795L59.4424 28L59.6279 33.5479L67.6064 33.2139L67.3096 37.5742L59.665 37.3145L59.5166 42.8623ZM82.2461 40.8584H81.0215C80.3288 40.8584 79.234 40.7161 77.7373 40.4316L76.3271 47.2969L71.9111 46.3135L74.082 36.665L76.6055 24.0479C79.401 23.5531 82.3512 23.1758 85.4561 22.916L88.3877 35.6445L90.6514 46.8145L86.1426 47.5381L84.1572 36.5908L82.2275 27.3506C81.5225 27.3506 80.7865 27.4681 80.0195 27.7031L78.4238 36.8506L83.2109 36.9619L82.6357 40.8398C82.4997 40.8522 82.3698 40.8584 82.2461 40.8584ZM96.4961 45.8125C95.9889 45.627 95.6735 45.4909 95.5498 45.4043C95.4261 45.3053 95.3148 45.1816 95.2158 45.0332C94.6592 44.1921 94.2572 41.6934 94.0098 37.5371C93.9479 36.6094 93.917 35.7002 93.917 34.8096C93.917 33.9189 93.9355 33.0964 93.9727 32.3418C94.0098 31.5749 94.0592 30.8512 94.1211 30.1709C94.2572 28.637 94.3809 27.7155 94.4922 27.4062L94.7148 26.7012C94.9128 26.1074 95.3643 25.6683 96.0693 25.3838C96.3786 25.2601 96.7806 25.1178 97.2754 24.957L98.9082 24.4004C99.5143 24.2148 100.145 24.0293 100.801 23.8438L102.693 23.2871C103.967 22.9284 105.044 22.6562 105.922 22.4707L106.924 26.9795C106.615 27.0537 106.237 27.1341 105.792 27.2207L101.265 28.0742L99.9844 28.334C99.6133 28.4206 99.335 28.4886 99.1494 28.5381C98.8031 29.9235 98.6299 31.9336 98.6299 34.5684C98.6299 38.0072 98.8402 40.543 99.2607 42.1758C99.7803 42.2995 100.343 42.4232 100.949 42.5469L104.771 43.3262L106.571 43.6602L105.532 47.9463C104.419 47.7484 103.405 47.5381 102.489 47.3154C99.0133 46.4867 97.0156 45.9857 96.4961 45.8125ZM124.013 27.2393C122.565 27.3011 120.803 27.4124 118.725 27.5732L118.892 35.292L118.465 47L114.327 47.334L114.104 27.7402C113.028 27.765 112.033 27.8021 111.117 27.8516C110.214 27.901 109.447 27.9258 108.816 27.9258L109.15 23.8994C113.43 23.3428 118.224 23.0645 123.53 23.0645L124.013 27.2393ZM127.315 35.3291L139.84 35.1436L139.654 38.9844C138.454 39.0339 137.589 39.0833 137.057 39.1328C136.525 39.1699 136.086 39.2008 135.739 39.2256C135.393 39.238 135.016 39.2565 134.607 39.2812C133.655 39.3184 132.733 39.3369 131.843 39.3369C130.952 39.3369 130.334 39.3369 129.987 39.3369C129.653 39.3245 129.35 39.3122 129.078 39.2998C128.806 39.2751 128.503 39.2503 128.169 39.2256C127.847 39.2008 127.39 39.1699 126.796 39.1328L127.315 35.3291ZM149.173 42.8623L158.172 44.2168L157.188 48.2617L154.387 47.8906C150.268 47.3216 147.175 46.7588 145.109 46.2021L144.868 24.8086C149.235 23.6953 153.391 22.9469 157.337 22.5635L157.986 26.9795L149.099 28L149.284 33.5479L157.263 33.2139L156.966 37.5742L149.321 37.3145L149.173 42.8623ZM164.666 45.8125C164.159 45.627 163.843 45.4909 163.72 45.4043C163.596 45.3053 163.485 45.1816 163.386 45.0332C162.829 44.1921 162.427 41.6934 162.18 37.5371C162.118 36.6094 162.087 35.7002 162.087 34.8096C162.087 33.9189 162.105 33.0964 162.143 32.3418C162.18 31.5749 162.229 30.8512 162.291 30.1709C162.427 28.637 162.551 27.7155 162.662 27.4062L162.885 26.7012C163.083 26.1074 163.534 25.6683 164.239 25.3838C164.549 25.2601 164.951 25.1178 165.445 24.957L167.078 24.4004C167.684 24.2148 168.315 24.0293 168.971 23.8438L170.863 23.2871C172.137 22.9284 173.214 22.6562 174.092 22.4707L175.094 26.9795C174.785 27.0537 174.407 27.1341 173.962 27.2207L169.435 28.0742L168.154 28.334C167.783 28.4206 167.505 28.4886 167.319 28.5381C166.973 29.9235 166.8 31.9336 166.8 34.5684C166.8 38.0072 167.01 40.543 167.431 42.1758C167.95 42.2995 168.513 42.4232 169.119 42.5469L172.941 43.3262L174.741 43.6602L173.702 47.9463C172.589 47.7484 171.575 47.5381 170.659 47.3154C167.183 46.4867 165.186 45.9857 164.666 45.8125ZM182.349 47.1113C181.829 46.9876 181.415 46.8206 181.105 46.6104C180.809 46.4001 180.536 45.9795 180.289 45.3486C180.054 44.7054 179.825 43.8581 179.603 42.8066C179.392 41.7428 179.213 40.6234 179.064 39.4482C178.78 37.1969 178.638 35.2611 178.638 33.6406C178.638 30.8327 178.712 29.0638 178.86 28.334C179.009 27.5918 179.163 27.0228 179.324 26.627C179.485 26.2311 179.695 25.8786 179.955 25.5693C180.438 24.9756 181.105 24.5241 181.959 24.2148C182.812 23.9056 183.728 23.652 184.705 23.4541C185.682 23.2438 186.721 23.0706 187.822 22.9346C190.012 22.6624 192.368 22.5016 194.892 22.4521L195.578 26.9424C191.162 27.1156 187.624 27.4805 184.965 28.0371C184.421 28.1608 183.969 28.2907 183.61 28.4268C183.462 29.2679 183.388 30.4616 183.388 32.0078C183.388 33.554 183.406 34.7539 183.443 35.6074C183.48 36.4609 183.536 37.3145 183.61 38.168C183.771 40.0977 184.025 41.7428 184.371 43.1035C184.544 43.1283 184.724 43.1406 184.909 43.1406C185.095 43.1406 185.435 43.1406 185.93 43.1406C187.092 43.1406 188.28 42.9984 189.492 42.7139C190.111 38.6937 190.42 34.2467 190.42 29.373L195.04 29.6699C195.102 30.5358 195.133 31.2965 195.133 31.9521C195.133 32.5954 195.108 33.2881 195.059 34.0303C195.021 34.7601 194.966 35.5085 194.892 36.2754C194.817 37.0299 194.731 37.7907 194.632 38.5576C194.533 39.3122 194.434 40.0358 194.335 40.7285C194.236 41.4089 194.137 42.0397 194.038 42.6211L193.778 44.0684C193.568 45.0827 193.327 45.7259 193.055 45.998C192.795 46.2702 192.541 46.4619 192.294 46.5732C192.059 46.6722 191.756 46.7588 191.385 46.833C191.014 46.9072 190.605 46.9691 190.16 47.0186C189.727 47.0804 189.27 47.1299 188.787 47.167C188.305 47.2041 187.841 47.235 187.396 47.2598C186.653 47.2845 185.967 47.2969 185.336 47.2969C183.864 47.2969 182.868 47.235 182.349 47.1113ZM200.848 33.9189C200.922 32.3604 201.039 30.8822 201.2 29.4844C201.2 29.4844 201.318 28.4515 201.553 26.3857C201.639 25.7178 201.714 25.0374 201.775 24.3447C204.435 23.6025 207.181 23.1387 210.014 22.9531L212.704 34.0859L213.576 42.8252L214.374 42.751L216.1 24.3076C217.856 23.6891 219.984 23.25 222.482 22.9902C223.249 22.916 223.967 22.8789 224.635 22.8789L226.973 34.457L228.643 46.9629L223.837 47.4639L222.371 34.8838L221.146 26.8496L220.015 26.998L219.254 35.0693L217.454 46.4619C215.326 46.8577 212.976 47.0866 210.403 47.1484L206.525 27.0908L205.301 27.2764L205.152 34.7168L204.039 47.3525L199.4 46.7773L200.848 33.9189Z" fill="white"/>
</svg>
